<svg width="1280" height="832" viewBox="0 0 1280 832" fill="none" xmlns="http://www.w3.org/2000/svg">
<g clip-path="url(#clip0_135_89)">
<path d="M580.294 1120.83L591.841 1109.28L580.294 1097.74L568.747 1109.28L580.294 1120.83ZM580.294 745.558L568.747 757.105L580.294 768.652L591.841 757.105L580.294 745.558ZM580.294 1109.28H582.294V757.105H580.294H578.294V1109.28H580.294Z" fill="#E5B55B"/>
<path d="M990.732 681.089L979.185 669.542L967.638 681.089L979.185 692.636L990.732 681.089ZM615.459 681.089L627.006 692.636L638.553 681.089L627.006 669.542L615.459 681.089ZM979.185 681.089V679.089L627.006 679.089V681.089V683.089L979.185 683.089V681.089Z" fill="#7967BD"/>
<path d="M693 994.156L704.547 982.609L693 971.062L681.453 982.609L693 994.156ZM693 615.074L681.453 626.621L693 638.168L704.547 626.621L693 615.074ZM693 982.609H695V626.621H693H691V982.609H693Z" fill="#CD785B"/>
<path d="M945.095 980.347L956.642 968.8L945.095 957.253L933.548 968.8L945.095 980.347ZM945.095 605.074L933.548 616.621L945.095 628.168L956.642 616.621L945.095 605.074ZM945.095 968.8H947.095V616.621H945.095H943.095V968.8H945.095Z" fill="#7967BD"/>
<path d="M435.5 627C435.5 627 435.626 614.432 430 609C424.526 603.714 412 603.5 412 603.5C412 603.5 424.588 604.52 430 599.087C435.395 593.671 435.5 580 435.5 580C435.5 580 435.171 593.618 440.5 599.087C445.938 604.669 459 603.5 459 603.5C459 603.5 445.994 603.484 440.5 609C435.022 614.5 435.5 627 435.5 627Z" fill="#E5B55B"/>
<rect x="285" y="704.242" width="10" height="10" transform="rotate(-180 285 704.242)" fill="#FDF5F2"/>
<rect x="269" y="704.242" width="10" height="10" transform="rotate(-180 269 704.242)" fill="#FDF5F2"/>
<rect x="253" y="704.242" width="10" height="10" transform="rotate(-180 253 704.242)" fill="#FDF5F2"/>
<path d="M1119 546.535L1130.55 534.988L1119 523.441L1107.45 534.988L1119 546.535ZM1119 167.453L1107.45 179L1119 190.547L1130.55 179L1119 167.453ZM1119 534.988H1121V179H1119H1117V534.988H1119Z" fill="#CD785B"/>
<path d="M21.1899 461.408C21.1899 461.408 21.3032 445.43 16.2306 438.524C11.2943 431.804 6.16156e-05 431.531 6.16156e-05 431.531C6.16156e-05 431.531 11.3508 432.828 16.2306 425.921C21.0955 419.036 21.1899 401.655 21.1899 401.655C21.1899 401.655 20.8929 418.968 25.6984 425.921C30.602 433.017 42.3798 431.531 42.3798 431.531C42.3798 431.531 30.6528 431.512 25.6984 438.524C20.7585 445.516 21.1899 461.408 21.1899 461.408Z" fill="#7967BD"/>
<circle cx="35.1661" cy="823.201" r="4.50849" fill="#FDF5F2"/>
<ellipse cx="20.739" cy="823.101" rx="4.50849" ry="6.35665" fill="#FDF5F2"/>
<circle cx="49.5932" cy="820.71" r="4.50848" fill="#FDF5F2"/>
<rect x="88.3663" y="515.439" width="12.7133" height="12.7133" transform="rotate(90 88.3663 515.439)" fill="#E5B55B"/>
<rect x="88.3663" y="535.781" width="12.7133" height="12.7133" transform="rotate(90 88.3663 535.781)" fill="#E5B55B"/>
<rect x="88.3663" y="556.122" width="12.7133" height="12.7133" transform="rotate(90 88.3663 556.122)" fill="#E5B55B"/>
<path d="M1006.29 673.21L1017.84 661.663L1006.29 650.116L994.747 661.663L1006.29 673.21ZM1006.29 297.937L994.747 309.484L1006.29 321.031L1017.84 309.484L1006.29 297.937ZM1006.29 661.663H1008.29V309.484H1006.29H1004.29V661.663H1006.29Z" fill="#E5B55B"/>
<path d="M1229.1 421.105L1240.64 409.558L1229.1 398.011L1217.55 409.558L1229.1 421.105ZM1229.1 45.8322L1217.55 57.3793L1229.1 68.9263L1240.64 57.3793L1229.1 45.8322ZM1229.1 409.558H1231.1V57.3793H1229.1H1227.1V409.558H1229.1Z" fill="#7967BD"/>
<path d="M528.453 779L540 790.547L551.547 779L540 767.453L528.453 779ZM727.864 779L716.317 767.453L704.77 779L716.317 790.547L727.864 779ZM540 779V781H716.317V779V777H540V779Z" fill="#2F100B"/>
<path d="M186.651 459.626L198.198 448.079L186.651 436.532L175.104 448.079L186.651 459.626ZM186.651 84.3535L175.104 95.9005L186.651 107.447L198.198 95.9005L186.651 84.3535ZM186.651 448.079H188.651L188.651 95.9005H186.651H184.651L184.651 448.079H186.651Z" fill="#CD785B"/>
<path d="M1220.79 674.762L1231.36 656.561H1210.21L1220.79 674.762Z" fill="#2F100B"/>
<path d="M1220.79 638.359L1210.21 656.561H1231.36L1220.79 638.359Z" fill="#2F100B"/>
<path d="M1220.79 631.537L1231.36 613.336H1210.21L1220.79 631.537Z" fill="#2F100B"/>
<path d="M1220.79 595.134L1210.21 613.336H1231.36L1220.79 595.134Z" fill="#2F100B"/>
<path d="M1204.42 631.537L1215 613.336H1193.85L1204.42 631.537Z" fill="#2F100B"/>
<path d="M1204.42 595.134L1193.85 613.336H1215L1204.42 595.134Z" fill="#2F100B"/>
<path d="M1204.42 631.537L1215 613.336H1193.85L1204.42 631.537Z" fill="#2F100B"/>
<path d="M1204.42 595.134L1193.85 613.336H1215L1204.42 595.134Z" fill="#2F100B"/>
<path d="M1204.42 588.312L1215 570.11H1193.85L1204.42 588.312Z" fill="#2F100B"/>
<path d="M1204.42 551.909L1193.85 570.11H1215L1204.42 551.909Z" fill="#2F100B"/>
<path d="M1220.79 721.399L1231.36 703.197H1210.21L1220.79 721.399Z" fill="#2F100B"/>
<path d="M1220.79 684.996L1210.21 703.197H1231.36L1220.79 684.996Z" fill="#2F100B"/>
<path d="M1237.15 631.537L1247.73 613.336H1226.58L1237.15 631.537Z" fill="#2F100B"/>
<path d="M1237.15 595.134L1226.58 613.336H1247.73L1237.15 595.134Z" fill="#2F100B"/>
<path d="M1220.79 588.312L1231.36 570.11H1210.21L1220.79 588.312Z" fill="#2F100B"/>
<path d="M1220.79 551.909L1210.21 570.11H1231.36L1220.79 551.909Z" fill="#2F100B"/>
<path d="M1204.42 541.676L1215 523.474H1193.85L1204.42 541.676Z" fill="#2F100B"/>
<path d="M1204.42 505.273L1193.85 523.474H1215L1204.42 505.273Z" fill="#2F100B"/>
<path d="M1204.42 674.762L1215 656.561H1193.85L1204.42 674.762Z" fill="#2F100B"/>
<path d="M1204.42 638.359L1193.85 656.561H1215L1204.42 638.359Z" fill="#2F100B"/>
<path d="M662.19 400.649C662.19 400.649 662.303 384.671 657.231 377.765C652.294 371.045 641 370.773 641 370.773C641 370.773 652.351 372.07 657.231 365.163C662.095 358.278 662.19 340.897 662.19 340.897C662.19 340.897 661.893 358.209 666.698 365.163C671.602 372.259 683.38 370.773 683.38 370.773C683.38 370.773 671.653 370.753 666.698 377.765C661.759 384.757 662.19 400.649 662.19 400.649Z" fill="#7967BD"/>
<circle cx="676.166" cy="762.443" r="4.50849" fill="#FDF5F2"/>
<ellipse cx="661.739" cy="762.342" rx="4.50849" ry="6.35665" fill="#FDF5F2"/>
<circle cx="690.593" cy="759.951" r="4.50848" fill="#FDF5F2"/>
<rect x="729.366" y="454.681" width="12.7133" height="12.7133" transform="rotate(90 729.366 454.681)" fill="#2F100B"/>
<rect x="729.366" y="475.022" width="12.7133" height="12.7133" transform="rotate(90 729.366 475.022)" fill="#2F100B"/>
<rect x="729.366" y="495.363" width="12.7133" height="12.7133" transform="rotate(90 729.366 495.363)" fill="#2F100B"/>
<path d="M1169.45 731.242L1181 742.789L1192.55 731.242L1181 719.695L1169.45 731.242ZM1368.86 731.242L1357.32 719.695L1345.77 731.242L1357.32 742.789L1368.86 731.242ZM1181 731.242V733.242H1357.32V731.242V729.242H1181V731.242Z" fill="#2F100B"/>
<path d="M827.651 398.868L839.198 387.321L827.651 375.774L816.104 387.321L827.651 398.868ZM827.651 23.5949L816.104 35.1419L827.651 46.689L839.198 35.1419L827.651 23.5949ZM827.651 387.321H829.651V35.1419H827.651H825.651V387.321H827.651Z" fill="#CD785B"/>
<path d="M1021.5 108.242C1021.5 108.242 1021.63 95.6736 1016 90.2417C1010.53 84.9557 998 84.7417 998 84.7417C998 84.7417 1010.59 85.7615 1016 80.329C1021.4 74.9131 1021.5 61.2417 1021.5 61.2417C1021.5 61.2417 1021.17 74.8593 1026.5 80.329C1031.94 85.9104 1045 84.7417 1045 84.7417C1045 84.7417 1031.99 84.726 1026.5 90.2417C1021.02 95.7413 1021.5 108.242 1021.5 108.242Z" fill="#7967BD"/>
<rect x="1210" y="84.2417" width="10" height="10" transform="rotate(-180 1210 84.2417)" fill="#CD785B"/>
<rect x="1194" y="84.2417" width="10" height="10" transform="rotate(-180 1194 84.2417)" fill="#CD785B"/>
<rect x="1178" y="84.2417" width="10" height="10" transform="rotate(-180 1178 84.2417)" fill="#CD785B"/>
<path d="M906.5 245.242C906.5 245.242 906.626 232.674 901 227.242C895.526 221.956 883 221.742 883 221.742C883 221.742 895.588 222.762 901 217.329C906.395 211.913 906.5 198.242 906.5 198.242C906.5 198.242 906.171 211.859 911.5 217.329C916.938 222.91 930 221.742 930 221.742C930 221.742 916.994 221.726 911.5 227.242C906.022 232.741 906.5 245.242 906.5 245.242Z" fill="#FDF5F2"/>
<path d="M1239 358.242L1249 375.242H1229L1239 358.242Z" fill="#2F100B"/>
<path d="M1239 392.242L1229 375.242H1249L1239 392.242Z" fill="#2F100B"/>
<path d="M764.5 133.621C764.5 133.621 764.626 121.053 759 115.621C753.526 110.335 741 110.121 741 110.121C741 110.121 753.588 111.141 759 105.708C764.395 100.292 764.5 86.6208 764.5 86.6208C764.5 86.6208 764.171 100.238 769.5 105.708C774.938 111.29 788 110.121 788 110.121C788 110.121 774.994 110.105 769.5 115.621C764.022 121.12 764.5 133.621 764.5 133.621Z" fill="#7967BD"/>
<path d="M1097 246.621L1107 263.621H1087L1097 246.621Z" fill="#2F100B"/>
<path d="M1097 280.621L1087 263.621H1107L1097 280.621Z" fill="#2F100B"/>
<path d="M109 99L118 114.488H100L109 99Z" fill="#FDF5F2"/>
<path d="M109 129.977L100 114.488H118L109 129.977Z" fill="#FDF5F2"/>
<path d="M109 133L118 148.488H100L109 133Z" fill="#FDF5F2"/>
<path d="M109 163.977L100 148.488H118L109 163.977Z" fill="#FDF5F2"/>
<path d="M91 133L100 148.488H82L91 133Z" fill="#FDF5F2"/>
<path d="M91 163.977L82 148.488H100L91 163.977Z" fill="#FDF5F2"/>
<path d="M91 133L100 148.488H82L91 133Z" fill="#FDF5F2"/>
<path d="M91 163.977L82 148.488H100L91 163.977Z" fill="#FDF5F2"/>
<path d="M91 167L100 182.488H82L91 167Z" fill="#FDF5F2"/>
<path d="M91 197.977L82 182.488H100L91 197.977Z" fill="#FDF5F2"/>
<path d="M109 65L118 80.4884H100L109 65Z" fill="#FDF5F2"/>
<path d="M109 95.9767L100 80.4884H118L109 95.9767Z" fill="#FDF5F2"/>
<path d="M127 133L136 148.488H118L127 133Z" fill="#FDF5F2"/>
<path d="M127 163.977L118 148.488H136L127 163.977Z" fill="#FDF5F2"/>
<path d="M109 167L118 182.488H100L109 167Z" fill="#FDF5F2"/>
<path d="M109 197.977L100 182.488H118L109 197.977Z" fill="#FDF5F2"/>
<path d="M91 201L100 216.488H82L91 201Z" fill="#FDF5F2"/>
<path d="M91 231.977L82 216.488H100L91 231.977Z" fill="#FDF5F2"/>
<path d="M91 99L100 114.488H82L91 99Z" fill="#FDF5F2"/>
<path d="M91 129.977L82 114.488H100L91 129.977Z" fill="#FDF5F2"/>
<path d="M70.8784 133L80.7568 150H61L70.8784 133Z" fill="#FDF5F2"/>
<path d="M70.8784 167L61 150H80.7568L70.8784 167Z" fill="#FDF5F2"/>
<path d="M53 90C53 90 53.1122 73.6883 48.0851 66.6383C43.1931 59.7777 32 59.5 32 59.5C32 59.5 43.2491 60.8236 48.0851 53.7729C52.9064 46.7437 53 29 53 29C53 29 52.7057 46.6739 57.4681 53.7729C62.3278 61.0169 74 59.5 74 59.5C74 59.5 62.378 59.4797 57.4681 66.6383C52.5725 73.7761 53 90 53 90Z" fill="#E5B55B"/>
<rect x="156" y="711" width="12.8571" height="12.8571" transform="rotate(90 156 711)" fill="#CD785B"/>
<rect x="156" y="731.572" width="12.8571" height="12.8571" transform="rotate(90 156 731.572)" fill="#CD785B"/>
<rect x="156" y="752.143" width="12.8571" height="12.8571" transform="rotate(90 156 752.143)" fill="#CD785B"/>
<path d="M198 551L209 569.5H187L198 551Z" fill="#2F100B"/>
<path d="M198 588L187 569.5H209L198 588Z" fill="#2F100B"/>
<path d="M426 765L436 783H416L426 765Z" fill="#2F100B"/>
<path d="M426 801L416 783H436L426 801Z" fill="#2F100B"/>
<path d="M1184 595L1195 613.5H1173L1184 595Z" fill="#2F100B"/>
<path d="M1184 632L1173 613.5H1195L1184 632Z" fill="#2F100B"/>
<path d="M1068 60C1068 60 1068.11 43.9557 1063.09 37.0213C1058.19 30.2732 1047 30 1047 30C1047 30 1058.25 31.3019 1063.09 24.3668C1067.91 17.4528 1068 -6.72908e-07 1068 -6.72908e-07C1068 -6.72908e-07 1067.71 17.3841 1072.47 24.3668C1077.33 31.492 1089 30 1089 30C1089 30 1077.38 29.98 1072.47 37.0213C1067.57 44.042 1068 60 1068 60Z" fill="#CD785B"/>
<rect x="1280" y="126" width="12.619" height="12.619" transform="rotate(90 1280 126)" fill="#E5B55B"/>
<rect x="1280" y="146.19" width="12.619" height="12.619" transform="rotate(90 1280 146.19)" fill="#E5B55B"/>
<rect x="1280" y="166.381" width="12.619" height="12.619" transform="rotate(90 1280 166.381)" fill="#E5B55B"/>
<rect x="299" y="634" width="10" height="10" transform="rotate(90 299 634)" fill="#CD785B"/>
<rect x="299" y="650" width="10" height="10" transform="rotate(90 299 650)" fill="#CD785B"/>
<rect x="299" y="666" width="10" height="10" transform="rotate(90 299 666)" fill="#CD785B"/>
<rect x="1192" y="188" width="10" height="10" transform="rotate(90 1192 188)" fill="#CD785B"/>
<rect x="1192" y="204" width="10" height="10" transform="rotate(90 1192 204)" fill="#CD785B"/>
<rect x="1192" y="220" width="10" height="10" transform="rotate(90 1192 220)" fill="#FDF5F2"/>
<path d="M265.5 306C265.5 306 265.626 293.432 260 288C254.526 282.714 242 282.5 242 282.5C242 282.5 254.588 283.52 260 278.087C265.395 272.671 265.5 259 265.5 259C265.5 259 265.171 272.618 270.5 278.087C275.938 283.669 289 282.5 289 282.5C289 282.5 275.994 282.484 270.5 288C265.022 293.5 265.5 306 265.5 306Z" fill="#E5B55B"/>
<path d="M1110.5 728C1110.5 728 1110.63 715.432 1105 710C1099.53 704.714 1087 704.5 1087 704.5C1087 704.5 1099.59 705.52 1105 700.087C1110.4 694.671 1110.5 681 1110.5 681C1110.5 681 1110.17 694.618 1115.5 700.087C1120.94 705.669 1134 704.5 1134 704.5C1134 704.5 1120.99 704.484 1115.5 710C1110.02 715.5 1110.5 728 1110.5 728Z" fill="#7967BD"/>
<path d="M380.5 169C380.5 169 380.626 156.432 375 151C369.526 145.714 357 145.5 357 145.5C357 145.5 369.588 146.52 375 141.087C380.395 135.671 380.5 122 380.5 122C380.5 122 380.171 135.618 385.5 141.087C390.938 146.669 404 145.5 404 145.5C404 145.5 390.994 145.484 385.5 151C380.022 156.5 380.5 169 380.5 169Z" fill="#7967BD"/>
<path d="M598 419L608 436H588L598 419Z" fill="#2F100B"/>
<path d="M598 453L588 436H608L598 453Z" fill="#2F100B"/>
<rect x="569" y="145" width="10" height="10" transform="rotate(-180 569 145)" fill="#CD785B"/>
<rect x="553" y="145" width="10" height="10" transform="rotate(-180 553 145)" fill="#CD785B"/>
<rect x="537" y="145" width="10" height="10" transform="rotate(-180 537 145)" fill="#CD785B"/>
<path d="M53 684L63 701.209H43L53 684Z" fill="#2F100B"/>
<path d="M53 718.419L43 701.209H63L53 718.419Z" fill="#2F100B"/>
<path d="M53 718L63 735.209H43L53 718Z" fill="#2F100B"/>
<path d="M53 752.419L43 735.209H63L53 752.419Z" fill="#2F100B"/>
<path d="M33 718L43 735.209H23L33 718Z" fill="#2F100B"/>
<path d="M33 752.419L23 735.209H43L33 752.419Z" fill="#2F100B"/>
<path d="M33 718L43 735.209H23L33 718Z" fill="#2F100B"/>
<path d="M33 752.419L23 735.209H43L33 752.419Z" fill="#2F100B"/>
<path d="M33 752L43 769.209H23L33 752Z" fill="#2F100B"/>
<path d="M33 786.419L23 769.209H43L33 786.419Z" fill="#2F100B"/>
<path d="M53 650L63 667.209H43L53 650Z" fill="#2F100B"/>
<path d="M53 684.419L43 667.209H63L53 684.419Z" fill="#2F100B"/>
<path d="M73 718L83 735.209H63L73 718Z" fill="#2F100B"/>
<path d="M73 752.419L63 735.209H83L73 752.419Z" fill="#2F100B"/>
<path d="M53 752L63 769.209H43L53 752Z" fill="#2F100B"/>
<path d="M53 786.419L43 769.209H63L53 786.419Z" fill="#2F100B"/>
<path d="M33 786L43 803.209H23L33 786Z" fill="#2F100B"/>
<path d="M33 820.419L23 803.209H43L33 820.419Z" fill="#2F100B"/>
<path d="M33 684L43 701.209H23L33 684Z" fill="#2F100B"/>
<path d="M33 718.419L23 701.209H43L33 718.419Z" fill="#2F100B"/>
<path d="M11.8784 718L21.7568 735H2L11.8784 718Z" fill="#2F100B"/>
<path d="M11.8784 752L2 735H21.7568L11.8784 752Z" fill="#2F100B"/>
<path d="M527 450L537 467.209H517L527 450Z" fill="#FDF5F2"/>
<path d="M527 484.419L517 467.209H537L527 484.419Z" fill="#FDF5F2"/>
<path d="M527 484L537 501.209H517L527 484Z" fill="#FDF5F2"/>
<path d="M527 518.419L517 501.209H537L527 518.419Z" fill="#FDF5F2"/>
<path d="M507 484L517 501.209H497L507 484Z" fill="#FDF5F2"/>
<path d="M507 518.419L497 501.209H517L507 518.419Z" fill="#FDF5F2"/>
<path d="M507 484L517 501.209H497L507 484Z" fill="#FDF5F2"/>
<path d="M507 518.419L497 501.209H517L507 518.419Z" fill="#FDF5F2"/>
<path d="M507 518L517 535.209H497L507 518Z" fill="#FDF5F2"/>
<path d="M507 552.419L497 535.209H517L507 552.419Z" fill="#FDF5F2"/>
<path d="M527 416L537 433.209H517L527 416Z" fill="#FDF5F2"/>
<path d="M527 450.419L517 433.209H537L527 450.419Z" fill="#FDF5F2"/>
<path d="M547 484L557 501.209H537L547 484Z" fill="#FDF5F2"/>
<path d="M547 518.419L537 501.209H557L547 518.419Z" fill="#FDF5F2"/>
<path d="M527 518L537 535.209H517L527 518Z" fill="#FDF5F2"/>
<path d="M527 552.419L517 535.209H537L527 552.419Z" fill="#FDF5F2"/>
<path d="M507 552L517 569.209H497L507 552Z" fill="#FDF5F2"/>
<path d="M507 586.419L497 569.209H517L507 586.419Z" fill="#FDF5F2"/>
<path d="M507 450L517 467.209H497L507 450Z" fill="#FDF5F2"/>
<path d="M507 484.419L497 467.209H517L507 484.419Z" fill="#FDF5F2"/>
<path d="M485.878 484L495.757 501H476L485.878 484Z" fill="#FDF5F2"/>
<path d="M485.878 518L476 501H495.757L485.878 518Z" fill="#FDF5F2"/>
<path d="M956.453 760L968 771.547L979.547 760L968 748.453L956.453 760ZM1218.54 760L1206.99 748.453L1195.45 760L1206.99 771.547L1218.54 760ZM968 760V762H1206.99V760V758H968V760Z" fill="#2F100B"/>
<circle cx="534.166" cy="650.822" r="4.50849" fill="#FDF5F2"/>
<ellipse cx="519.739" cy="650.722" rx="4.50849" ry="6.35665" fill="#FDF5F2"/>
<circle cx="548.593" cy="648.331" r="4.50848" fill="#FDF5F2"/>
<rect x="587.366" y="343.06" width="12.7133" height="12.7133" transform="rotate(90 587.366 343.06)" fill="#2F100B"/>
<rect x="587.366" y="363.401" width="12.7133" height="12.7133" transform="rotate(90 587.366 363.401)" fill="#2F100B"/>
<rect x="587.366" y="383.742" width="12.7133" height="12.7133" transform="rotate(90 587.366 383.742)" fill="#2F100B"/>
<path d="M1027.45 619.621L1039 631.168L1050.55 619.621L1039 608.074L1027.45 619.621ZM1226.86 619.621L1215.32 608.074L1203.77 619.621L1215.32 631.168L1226.86 619.621ZM1039 619.621V621.621H1215.32V619.621V617.621H1039V619.621Z" fill="#FDF5F2"/>
<path d="M685.651 287.247L697.198 275.7L685.651 264.153L674.104 275.7L685.651 287.247ZM685.651 -88.0257L674.104 -76.4787L685.651 -64.9317L697.198 -76.4787L685.651 -88.0257ZM685.651 275.7H687.651V-76.4787H685.651H683.651V275.7H685.651Z" fill="#FDF5F2"/>
<path d="M163.19 573.029C163.19 573.029 163.303 557.05 158.231 550.145C153.294 543.424 142 543.152 142 543.152C142 543.152 153.351 544.449 158.231 537.542C163.095 530.657 163.19 513.276 163.19 513.276C163.19 513.276 162.893 530.588 167.698 537.542C172.602 544.638 184.38 543.152 184.38 543.152C184.38 543.152 172.653 543.132 167.698 550.145C162.759 557.136 163.19 573.029 163.19 573.029Z" fill="#7967BD"/>
<rect x="230.366" y="627.06" width="12.7133" height="12.7133" transform="rotate(90 230.366 627.06)" fill="#2F100B"/>
<rect x="230.366" y="647.401" width="12.7133" height="12.7133" transform="rotate(90 230.366 647.401)" fill="#2F100B"/>
<rect x="230.366" y="667.742" width="12.7133" height="12.7133" transform="rotate(90 230.366 667.742)" fill="#2F100B"/>
<path d="M1148.29 784.831L1159.84 773.284L1148.29 761.737L1136.75 773.284L1148.29 784.831ZM1148.29 409.558L1136.75 421.105L1148.29 432.652L1159.84 421.105L1148.29 409.558ZM1148.29 773.284H1150.29V421.105H1148.29H1146.29V773.284H1148.29Z" fill="#E5B55B"/>
<path d="M328.651 571.247L340.198 559.7L328.651 548.153L317.104 559.7L328.651 571.247ZM328.651 195.974L317.104 207.521L328.651 219.068L340.198 207.521L328.651 195.974ZM328.651 559.7H330.651L330.651 207.521H328.651H326.651L326.651 559.7H328.651Z" fill="#7967BD"/>
<path d="M522.5 280.621C522.5 280.621 522.626 268.053 517 262.621C511.526 257.335 499 257.121 499 257.121C499 257.121 511.588 258.141 517 252.708C522.395 247.292 522.5 233.621 522.5 233.621C522.5 233.621 522.171 247.238 527.5 252.708C532.938 258.29 546 257.121 546 257.121C546 257.121 532.994 257.105 527.5 262.621C522.022 268.12 522.5 280.621 522.5 280.621Z" fill="#E5B55B"/>
<rect x="711" y="256.621" width="10" height="10" transform="rotate(-180 711 256.621)" fill="#CD785B"/>
<rect x="695" y="256.621" width="10" height="10" transform="rotate(-180 695 256.621)" fill="#CD785B"/>
<rect x="679" y="256.621" width="10" height="10" transform="rotate(-180 679 256.621)" fill="#CD785B"/>
<path d="M407.5 417.621C407.5 417.621 407.626 405.053 402 399.621C396.526 394.335 384 394.121 384 394.121C384 394.121 396.588 395.141 402 389.708C407.395 384.292 407.5 370.621 407.5 370.621C407.5 370.621 407.171 384.238 412.5 389.708C417.938 395.29 431 394.121 431 394.121C431 394.121 417.994 394.105 412.5 399.621C407.022 405.12 407.5 417.621 407.5 417.621Z" fill="#FDF5F2"/>
<path d="M776 634L786 651H766L776 634Z" fill="#FDF5F2"/>
<path d="M776 668L766 651H786L776 668Z" fill="#FDF5F2"/>
</g>
<defs>
<clipPath id="clip0_135_89">
<rect width="1280" height="832" fill="white"/>
</clipPath>
</defs>
</svg>
